<svg width="914" height="400" fill="none" xmlns="http://www.w3.org/2000/svg"><g clip-path="url(#funky__a)"><rect width="914" height="400" rx="12" fill="#FCF0D8"/><path d="M894.8 0c6.721 0 10.081 0 12.648 1.308a11.997 11.997 0 0 1 5.244 5.244C914 9.12 914 12.48 914 19.2v361.6c0 6.721 0 10.081-1.308 12.648a11.994 11.994 0 0 1-5.244 5.244C904.881 400 901.521 400 894.8 400H746V0h148.8Z" fill="#FFD461"/><path d="M914 291H386c-15.464 0-28 12.536-28 28v81" stroke="#FFD461" stroke-width="4"/><path d="M914 295H386c-13.255 0-24 10.745-24 24v81" stroke="#ADDCD2" stroke-width="4"/><path d="M914 299H386c-11.046 0-20 8.954-20 20v81" stroke="#F27058" stroke-width="4"/><path d="M99 0v176c0 13.255 10.745 24 24 24h511" stroke="#231E20" stroke-width="10"/><path d="M89 0v176c0 18.778 15.222 34 34 34h511" stroke="#F27058" stroke-width="10"/><path d="M79 0v176c0 24.301 19.7 44 44 44h511" stroke="#ADDCD2" stroke-width="10"/><path d="M69 0v176c0 29.823 24.177 54 54 54h511" stroke="#FFD461" stroke-width="10"/><path d="M659.641 235h-1.74v-40.025h19.263v1.74h-17.523v1.74h17.523v1.74h-17.523v1.741h17.523v1.74h-17.523v8.701h16.701v1.74h-16.701v1.74h16.701v1.741h-16.701v1.74h16.701v1.74h-16.701V235Zm-3.481 0h-1.74v-40.025h1.74V235Zm-3.48 0h-1.74v-40.025h1.74V235Zm-3.481 0h-1.74v-40.025h1.74V235Zm60.28-17.596v-22.429h1.74v22.429c0 2.45-.966 4.544-2.9 6.284-1.934 1.741-4.254 2.611-6.961 2.611-2.707 0-5.027-.87-6.961-2.611-1.933-1.74-2.9-3.834-2.9-6.284v-22.429h1.74v22.429c0 1.966.79 3.65 2.369 5.052 1.595 1.402 3.512 2.103 5.752 2.103 2.24 0 4.149-.701 5.728-2.103 1.596-1.402 2.393-3.086 2.393-5.052Zm3.481 0v-22.429h1.74v22.429c0 1.676-.355 3.279-1.064 4.81a12.667 12.667 0 0 1-2.852 3.94c-1.192 1.112-2.61 1.998-4.253 2.658a14.035 14.035 0 0 1-5.173.967c-1.805 0-3.529-.322-5.172-.967-1.644-.66-3.062-1.546-4.254-2.658a12.683 12.683 0 0 1-2.852-3.94 11.315 11.315 0 0 1-1.064-4.81v-22.429h1.741v22.429c0 1.918.515 3.698 1.546 5.342 1.048 1.627 2.458 2.916 4.23 3.867 1.789.951 3.73 1.426 5.825 1.426s4.028-.475 5.801-1.426c1.789-.951 3.198-2.24 4.23-3.867 1.047-1.644 1.571-3.424 1.571-5.342Zm3.48 0v-22.429h1.74v22.429c0 2.143-.451 4.198-1.353 6.164-.886 1.949-2.079 3.633-3.577 5.051-1.499 1.418-3.287 2.546-5.366 3.384a17.293 17.293 0 0 1-6.526 1.257c-2.272 0-4.447-.419-6.526-1.257-2.078-.838-3.867-1.966-5.365-3.384-1.499-1.418-2.699-3.102-3.602-5.051a14.84 14.84 0 0 1-1.329-6.164v-22.429h1.74v22.429c0 2.546.677 4.907 2.03 7.082 1.354 2.159 3.183 3.875 5.487 5.148 2.32 1.257 4.842 1.886 7.565 1.886 2.723 0 5.237-.629 7.541-1.886 2.32-1.273 4.157-2.989 5.511-5.148 1.353-2.175 2.03-4.536 2.03-7.082Zm3.481 0v-22.429h1.74v22.429c0 3.481-.911 6.711-2.731 9.692-1.821 2.965-4.295 5.318-7.42 7.058-3.11 1.724-6.494 2.586-10.152 2.586-3.658 0-7.049-.862-10.175-2.586-3.11-1.74-5.576-4.093-7.396-7.058-1.821-2.981-2.732-6.211-2.732-9.692v-22.429h1.741v22.429c0 2.369.491 4.641 1.474 6.816.983 2.176 2.304 4.053 3.964 5.632 1.66 1.563 3.633 2.812 5.922 3.746a18.976 18.976 0 0 0 7.202 1.402c2.498 0 4.891-.467 7.179-1.402 2.304-.934 4.286-2.183 5.945-3.746 1.66-1.579 2.981-3.456 3.964-5.632a16.37 16.37 0 0 0 1.475-6.816Zm34.611-1.667-1.74-2.877v-17.885h1.74v20.762Zm3.48 5.704-1.74-2.925v-23.541h1.74v26.466Zm3.481 5.776-1.74-2.948v-29.294h1.74v32.242Zm-24.943-12.979 1.74 2.876V235h-1.74v-20.762Zm-3.481-5.704 1.74 2.924V235h-1.74v-26.466Zm-3.48-5.777 1.74 2.949V235h-1.74v-32.243Zm.604-7.782h2.03L756.828 235h-2.03l-24.605-40.025Zm4.109 0h2.054L760.937 235h-2.079l-24.556-40.025Zm4.084 0h2.031l22.816 37.197v-37.197h1.74V235h-2.054l-24.533-40.025Zm-10.538 2.827V235h-1.74v-40.025h2.079L752.719 235h-2.006l-22.865-37.198ZM781.747 235h-1.74v-40.025h1.74V235Zm-3.48 0h-1.74v-40.025h1.74V235Zm-3.481 0h-1.74v-40.025h1.74V235Zm-3.48 0h-1.74v-40.025h1.74V235Zm23.155-20.013 10.224-20.012h1.933l-10.224 20.012L806.618 235h-1.933l-10.224-20.013Zm-3.892 0 10.224-20.012h1.934l-10.224 20.012L802.727 235h-1.934l-10.224-20.013Zm-3.891 0 10.224-20.012h1.933l-10.223 20.012L798.835 235h-1.933l-10.224-20.013Zm-3.916 0 10.248-20.012h1.934l-10.248 20.012L794.944 235h-1.934l-10.248-20.013Zm40.606-.121-.87 1.91-10.442-21.801h1.741l9.571 19.891Zm1.74-3.818-.894 1.909-8.677-17.982h1.74l7.831 16.073Zm1.74-3.795-.87 1.909-6.961-14.187h1.741l6.09 12.278Zm-2.199 14.26 12.592-26.538h1.741l-12.593 26.538V235h-1.74v-13.487Zm3.48 0 12.593-26.538h1.74l-12.592 26.538V235h-1.741v-13.487Zm3.481 0 12.592-26.538h1.741l-12.593 26.538V235h-1.74v-13.487Zm-9.571-1.837 11.722-24.701h1.74l-12.592 26.538V235h-1.741v-13.487l-12.592-26.538h1.74l11.723 24.701Z" fill="#FFD461"/><path d="M657.641 235h-1.74v-40.025h19.263v1.74h-17.523v1.74h17.523v1.74h-17.523v1.741h17.523v1.74h-17.523v8.701h16.701v1.74h-16.701v1.74h16.701v1.741h-16.701v1.74h16.701v1.74h-16.701V235Zm-3.481 0h-1.74v-40.025h1.74V235Zm-3.48 0h-1.74v-40.025h1.74V235Zm-3.481 0h-1.74v-40.025h1.74V235Zm60.28-17.596v-22.429h1.74v22.429c0 2.45-.966 4.544-2.9 6.284-1.934 1.741-4.254 2.611-6.961 2.611-2.707 0-5.027-.87-6.961-2.611-1.933-1.74-2.9-3.834-2.9-6.284v-22.429h1.74v22.429c0 1.966.79 3.65 2.369 5.052 1.595 1.402 3.512 2.103 5.752 2.103 2.24 0 4.149-.701 5.728-2.103 1.596-1.402 2.393-3.086 2.393-5.052Zm3.481 0v-22.429h1.74v22.429c0 1.676-.355 3.279-1.064 4.81a12.667 12.667 0 0 1-2.852 3.94c-1.192 1.112-2.61 1.998-4.253 2.658a14.035 14.035 0 0 1-5.173.967c-1.805 0-3.529-.322-5.172-.967-1.644-.66-3.062-1.546-4.254-2.658a12.683 12.683 0 0 1-2.852-3.94 11.315 11.315 0 0 1-1.064-4.81v-22.429h1.741v22.429c0 1.918.515 3.698 1.546 5.342 1.048 1.627 2.458 2.916 4.23 3.867 1.789.951 3.73 1.426 5.825 1.426s4.028-.475 5.801-1.426c1.789-.951 3.198-2.24 4.23-3.867 1.047-1.644 1.571-3.424 1.571-5.342Zm3.48 0v-22.429h1.74v22.429c0 2.143-.451 4.198-1.353 6.164-.886 1.949-2.079 3.633-3.577 5.051-1.499 1.418-3.287 2.546-5.366 3.384a17.293 17.293 0 0 1-6.526 1.257c-2.272 0-4.447-.419-6.526-1.257-2.078-.838-3.867-1.966-5.365-3.384-1.499-1.418-2.699-3.102-3.602-5.051a14.84 14.84 0 0 1-1.329-6.164v-22.429h1.74v22.429c0 2.546.677 4.907 2.03 7.082 1.354 2.159 3.183 3.875 5.487 5.148 2.32 1.257 4.842 1.886 7.565 1.886 2.723 0 5.237-.629 7.541-1.886 2.32-1.273 4.157-2.989 5.511-5.148 1.353-2.175 2.03-4.536 2.03-7.082Zm3.481 0v-22.429h1.74v22.429c0 3.481-.911 6.711-2.731 9.692-1.821 2.965-4.295 5.318-7.42 7.058-3.11 1.724-6.494 2.586-10.152 2.586-3.658 0-7.049-.862-10.175-2.586-3.11-1.74-5.576-4.093-7.396-7.058-1.821-2.981-2.732-6.211-2.732-9.692v-22.429h1.741v22.429c0 2.369.491 4.641 1.474 6.816.983 2.176 2.304 4.053 3.964 5.632 1.66 1.563 3.633 2.812 5.922 3.746a18.976 18.976 0 0 0 7.202 1.402c2.498 0 4.891-.467 7.179-1.402 2.304-.934 4.286-2.183 5.945-3.746 1.66-1.579 2.981-3.456 3.964-5.632a16.37 16.37 0 0 0 1.475-6.816Zm34.611-1.667-1.74-2.877v-17.885h1.74v20.762Zm3.48 5.704-1.74-2.925v-23.541h1.74v26.466Zm3.481 5.776-1.74-2.948v-29.294h1.74v32.242Zm-24.943-12.979 1.74 2.876V235h-1.74v-20.762Zm-3.481-5.704 1.74 2.924V235h-1.74v-26.466Zm-3.48-5.777 1.74 2.949V235h-1.74v-32.243Zm.604-7.782h2.03L754.828 235h-2.03l-24.605-40.025Zm4.109 0h2.054L758.937 235h-2.079l-24.556-40.025Zm4.084 0h2.031l22.816 37.197v-37.197h1.74V235h-2.054l-24.533-40.025Zm-10.538 2.827V235h-1.74v-40.025h2.079L750.719 235h-2.006l-22.865-37.198ZM779.747 235h-1.74v-40.025h1.74V235Zm-3.48 0h-1.74v-40.025h1.74V235Zm-3.481 0h-1.74v-40.025h1.74V235Zm-3.48 0h-1.74v-40.025h1.74V235Zm23.155-20.013 10.224-20.012h1.933l-10.224 20.012L804.618 235h-1.933l-10.224-20.013Zm-3.892 0 10.224-20.012h1.934l-10.224 20.012L800.727 235h-1.934l-10.224-20.013Zm-3.891 0 10.224-20.012h1.933l-10.223 20.012L796.835 235h-1.933l-10.224-20.013Zm-3.916 0 10.248-20.012h1.934l-10.248 20.012L792.944 235h-1.934l-10.248-20.013Zm40.606-.121-.87 1.91-10.442-21.801h1.741l9.571 19.891Zm1.74-3.818-.894 1.909-8.677-17.982h1.74l7.831 16.073Zm1.74-3.795-.87 1.909-6.961-14.187h1.741l6.09 12.278Zm-2.199 14.26 12.592-26.538h1.741l-12.593 26.538V235h-1.74v-13.487Zm3.48 0 12.593-26.538h1.74l-12.592 26.538V235h-1.741v-13.487Zm3.481 0 12.592-26.538h1.741l-12.593 26.538V235h-1.74v-13.487Zm-9.571-1.837 11.722-24.701h1.74l-12.592 26.538V235h-1.741v-13.487l-12.592-26.538h1.74l11.723 24.701Z" fill="#231E20"/></g><defs><clipPath id="funky__a"><path fill="#fff" d="M0 0h914v400H0z"/></clipPath></defs></svg>